<svg width="24" height="24" viewBox="0 0 24 24" fill="none" xmlns="http://www.w3.org/2000/svg">
<path d="M9.17647 6.72232L8.75299 7.86677C8.60106 8.27734 8.27734 8.60106 7.86676 8.75299L6.72231 9.17647L7.86676 9.59996C8.27734 9.75188 8.60106 10.0756 8.75299 10.4862L9.17647 11.6306L9.59995 10.4862C9.75188 10.0756 10.0756 9.75188 10.4862 9.59996L11.6306 9.17647L10.4862 8.75299C10.0756 8.60106 9.75188 8.27734 9.59995 7.86677L9.17647 6.72232ZM17.6471 16.3639L17.2891 16.891C17.1827 17.0476 17.0476 17.1827 16.891 17.2891L16.3639 17.6471L16.891 18.005C17.0476 18.1114 17.1827 18.2465 17.2891 18.4031L17.6471 18.9302L18.005 18.4031C18.1114 18.2465 18.2465 18.1114 18.4031 18.005L18.9302 17.6471L18.4031 17.2891C18.2465 17.1827 18.1114 17.0476 18.005 16.891L17.6471 16.3639Z" stroke="#524EC1" stroke-width="3" stroke-linejoin="round"/>
</svg>
